<svg width="32" height="32" viewBox="0 0 32 32" fill="none" xmlns="http://www.w3.org/2000/svg">
<rect width="32" height="32" rx="16" fill="#303B29"/>
<g clip-path="url(#clip0_473_1146)">
<path d="M26.4318 6.47916C24.6926 4.55495 22.4339 3.16632 19.9142 2.51874C19.0001 2.32 18.0278 2.18947 17.0221 2.13642V0.722526C17.0221 0.323368 16.6934 0 16.2869 0H15.4755C15.0698 0 14.7403 0.323368 14.7403 0.722526V2.21979C14.8053 2.21221 14.8729 2.20716 14.9406 2.19958C11.7044 2.53053 9.09567 3.79284 7.0518 5.79621C6.78476 6.05895 6.52457 6.33179 6.2755 6.6181C4.16573 9.05432 3 12.5617 3 16.5718C3 19.2632 3.79085 21.7465 5.15 23.8232C7.25379 27.0408 10.7236 29.2758 14.7394 29.7777V31.2766C14.7394 31.6758 15.0681 31.9992 15.4746 31.9992H16.286C16.6917 31.9992 17.0212 31.6758 17.0212 31.2766V29.8636C17.4834 29.8451 17.9302 29.8139 18.3581 29.7659C18.371 29.7642 18.3864 29.7625 18.4009 29.76C18.4797 29.7507 18.5559 29.7398 18.6329 29.7288C21.5532 29.3002 24.126 28.0051 26.0817 26.0371C28.5202 23.5832 29.9991 20.0884 29.9991 15.9251C29.9991 12.2021 28.6323 8.91284 26.4318 6.47747V6.47916ZM18.7193 22.6813C17.9978 22.992 17.1916 23.1596 16.3186 23.1596C13.6191 23.1596 11.4887 21.5276 10.7638 18.2316C12.2257 18.752 13.8767 19.0223 15.8461 19.2926C17.8823 19.5781 19.339 20.4387 19.339 21.5832C19.339 21.9731 19.1199 22.3613 18.7202 22.6813H18.7193ZM16.9356 12.2754C14.9722 11.9183 14.1703 11.1309 14.1703 10.1288C14.1703 9.19832 15.3351 8.69558 16.8646 8.69558C17.7624 8.69558 18.5995 9.08379 19.4314 9.50653C20.7572 10.3604 21.6097 11.7491 22.0547 13.2867C20.0485 12.512 18.4335 12.5693 16.9356 12.2754Z" fill="#658B2C"/>
<path d="M30 15.9267C30 12.2038 28.6331 8.91453 26.4318 6.47832C26.5037 6.69221 26.543 6.90611 26.543 7.12C26.543 8.69474 25.0872 10.5566 22.4673 10.5566C21.4 10.5566 20.4191 10.0076 19.4306 9.50569C20.7572 10.3596 21.6105 11.7482 22.0547 13.2859C22.9748 13.6421 23.9771 14.1726 25.0872 14.9945C27.0882 16.4623 27.9253 18.3604 27.9253 20.7225C27.9253 22.5272 27.3698 24.432 26.0817 26.0354C28.5193 23.5823 30 20.0859 30 15.9251V15.9267Z" fill="url(#paint0_linear_473_1146)"/>
<path d="M9.00409 21.44C11.2602 21.44 12.4978 23.4451 16.0635 23.4451C17.2506 23.4451 18.163 23.1284 18.7202 22.6813C17.9987 22.992 17.1933 23.1587 16.3186 23.1587C13.6191 23.1587 11.4887 21.5284 10.7647 18.2324C9.90192 17.9259 9.10594 17.5326 8.34933 17.0013C6.2387 15.5688 5.22019 13.4931 5.22019 11.0585C5.22019 9.0459 5.81846 7.27916 7.05351 5.79706C6.78561 6.05979 6.52457 6.3318 6.27636 6.6198C4.16487 9.05348 3 12.5617 3 16.5718C3 19.2632 3.79256 21.7465 5.15 23.8232C5.54029 22.4025 7.38645 21.44 9.00323 21.44H9.00409Z" fill="url(#paint1_linear_473_1146)"/>
<path d="M10.4968 15.5697C10.4968 16.5541 10.5909 17.4408 10.7647 18.2324C12.2265 18.752 13.8775 19.0223 15.8452 19.2926C17.8831 19.5789 19.3381 20.4379 19.3381 21.584C19.3381 21.973 19.1199 22.3604 18.7193 22.6813C21.002 21.6985 22.4313 19.2632 22.4313 15.9992C22.4313 15.0947 22.3089 14.1667 22.0547 13.2876C20.0494 12.512 18.4326 12.5701 16.9357 12.2754C14.9705 11.9175 14.1703 11.1301 14.1703 10.128C14.1703 9.19747 15.3351 8.69557 16.8629 8.69557C17.7607 8.69557 18.5978 9.08462 19.4297 9.50652C18.5721 8.9541 17.5168 8.62399 16.2441 8.62399C12.9694 8.62399 10.4951 11.4518 10.4951 15.5688L10.4968 15.5697Z" fill="url(#paint2_linear_473_1146)"/>
<path d="M27.9262 20.7242C27.9262 22.5288 27.3707 24.4345 26.0826 26.0387C24.1269 28.0067 21.554 29.3019 18.6337 29.7305C18.5567 29.7415 18.4805 29.7524 18.4018 29.7617C18.3872 29.7634 18.3718 29.7651 18.359 29.7676C17.931 29.8156 17.4843 29.8484 17.0221 29.8653V31.2783C17.0221 31.6775 16.6934 32.0008 16.2869 32.0008H15.4755C15.0698 32.0008 14.7403 31.6775 14.7403 31.2783V29.7794C10.7219 29.2775 7.25378 27.0425 5.15085 23.8248C5.54199 22.4051 7.3873 21.4408 9.00408 21.4408C11.2611 21.4408 12.497 23.4459 16.0626 23.4459C17.2498 23.4459 18.1621 23.1293 18.7193 22.6821C21.002 21.7002 22.4305 19.264 22.4305 15.9992C22.4305 15.0956 22.3089 14.1667 22.0547 13.2876C22.9748 13.6446 23.9771 14.176 25.0872 14.9962C27.0874 16.464 27.9253 18.3621 27.9253 20.7242H27.9262Z" fill="url(#paint3_linear_473_1146)"/>
<path d="M26.5422 7.12084C26.5422 8.69558 25.0872 10.5566 22.4681 10.5566C21.4008 10.5566 20.4191 10.0084 19.4314 9.50653C18.573 8.95495 17.5185 8.62316 16.2458 8.62316C12.9703 8.62316 10.4968 11.4526 10.4968 15.5688C10.4968 16.5533 10.5901 17.44 10.7638 18.2307C9.90192 17.9251 9.10508 17.5318 8.35018 17.0004C6.23955 15.5697 5.22018 13.4922 5.22018 11.0585C5.22018 9.0459 5.81845 7.27832 7.05265 5.79537C9.05287 3.83411 11.5957 2.58021 14.7411 2.21895V0.722526C14.7411 0.323368 15.0698 0 15.4763 0H16.2877C16.6934 0 17.0229 0.323368 17.0229 0.722526V2.13558C18.0286 2.18695 19.0009 2.31916 19.915 2.51789C22.4356 3.16547 24.6943 4.55411 26.4326 6.47832C26.5037 6.69137 26.543 6.90695 26.543 7.12L26.5422 7.12084Z" fill="url(#paint4_linear_473_1146)"/>
</g>
<defs>
<linearGradient id="paint0_linear_473_1146" x1="9.4851" y1="29.1773" x2="29.5085" y2="11.4015" gradientUnits="userSpaceOnUse">
<stop stop-color="#37660D"/>
<stop offset="0.24" stop-color="#436F1B"/>
<stop offset="0.69" stop-color="#638842"/>
<stop offset="1" stop-color="#7C9C60"/>
</linearGradient>
<linearGradient id="paint1_linear_473_1146" x1="3.43394" y1="22.3621" x2="23.4607" y2="4.58297" gradientUnits="userSpaceOnUse">
<stop stop-color="#37660D"/>
<stop offset="0.24" stop-color="#436F1B"/>
<stop offset="0.69" stop-color="#638842"/>
<stop offset="1" stop-color="#7C9C60"/>
</linearGradient>
<linearGradient id="paint2_linear_473_1146" x1="11.5435" y1="10.6661" x2="21.2622" y2="19.7143" gradientUnits="userSpaceOnUse">
<stop stop-color="#37660D"/>
<stop offset="1" stop-color="#C9FF30"/>
</linearGradient>
<linearGradient id="paint3_linear_473_1146" x1="11.4331" y1="30.235" x2="28.5434" y2="7.2425" gradientUnits="userSpaceOnUse">
<stop stop-color="#37660D"/>
<stop offset="1" stop-color="#C9FF30"/>
</linearGradient>
<linearGradient id="paint4_linear_473_1146" x1="3.46218" y1="24.3032" x2="20.5725" y2="1.31071" gradientUnits="userSpaceOnUse">
<stop stop-color="#37660D"/>
<stop offset="1" stop-color="#C9FF30"/>
</linearGradient>
<clipPath id="clip0_473_1146">
<rect width="27" height="32" fill="white" transform="translate(3)"/>
</clipPath>
</defs>
</svg>
